<svg width="128" height="24" viewBox="0 0 128 24" fill="none" xmlns="http://www.w3.org/2000/svg">
<path d="M12 0C18.6274 0 24 5.37258 24 12C24 18.6274 18.6274 24 12 24C5.37258 24 0 18.6274 0 12C0 5.37258 5.37258 0 12 0ZM17.1709 7.4043C16.7924 7.02586 16.1784 7.02586 15.7998 7.4043C15.4216 7.78271 15.4218 8.39585 15.7998 8.77441C16.5496 9.52447 17.061 10.4805 17.2686 11.5205C17.4761 12.5605 17.3702 13.6388 16.9658 14.6191C16.5614 15.5993 15.8763 16.4381 14.9961 17.0293C14.1158 17.6204 13.0799 17.938 12.0195 17.9414C10.959 17.9447 9.92028 17.6336 9.03613 17.0479C8.15212 16.4621 7.46128 15.6272 7.05078 14.6494C6.64048 13.6718 6.52858 12.5947 6.72949 11.5537C6.93055 10.5124 7.43559 9.55357 8.18066 8.79883C8.55671 8.41786 8.55274 7.80386 8.17188 7.42773C7.79089 7.05176 7.17687 7.05564 6.80078 7.43652C5.78677 8.4637 5.09985 9.76837 4.82617 11.1855C4.55255 12.6027 4.70403 14.0696 5.2627 15.4004C5.82145 16.7313 6.76252 17.8669 7.96582 18.6641C9.169 19.4611 10.5812 19.8843 12.0244 19.8799C13.4678 19.8754 14.8779 19.4433 16.0762 18.6387C17.2744 17.834 18.2084 16.6927 18.7588 15.3584C19.3091 14.0241 19.4515 12.5561 19.1689 11.1406C18.8864 9.72527 18.1912 8.42507 17.1709 7.4043ZM11.9775 3.87988C11.4423 3.88004 11.0078 4.31433 11.0078 4.84961V11.8926C11.0078 12.4279 11.4423 12.8622 11.9775 12.8623C12.5128 12.8622 12.9473 12.4279 12.9473 11.8926V4.84961C12.9473 4.31432 12.5128 3.88002 11.9775 3.87988Z" fill="#166F92"/>
<path d="M122.256 20.976C120.992 20.976 119.888 20.704 118.944 20.16C118.016 19.6 117.296 18.824 116.784 17.832C116.288 16.84 116.04 15.68 116.04 14.352C116.04 13.072 116.304 11.952 116.832 10.992C117.36 10.016 118.08 9.256 118.992 8.712C119.92 8.168 120.976 7.896 122.16 7.896C123.328 7.896 124.344 8.136 125.208 8.616C126.072 9.096 126.744 9.784 127.224 10.68C127.704 11.56 127.944 12.608 127.944 13.824C127.944 14.064 127.936 14.304 127.92 14.544C127.904 14.784 127.888 14.984 127.872 15.144H117.528V13.152H125.976L125.064 13.512C125.064 12.776 124.944 12.16 124.704 11.664C124.48 11.152 124.144 10.768 123.696 10.512C123.248 10.256 122.704 10.128 122.064 10.128C121.472 10.128 120.944 10.256 120.48 10.512C120.016 10.768 119.648 11.168 119.376 11.712C119.12 12.24 118.992 12.92 118.992 13.752V14.808C118.992 15.976 119.272 16.904 119.832 17.592C120.392 18.264 121.24 18.6 122.376 18.6C123.064 18.6 123.656 18.456 124.152 18.168C124.664 17.864 125.08 17.4 125.4 16.776L127.68 17.928C127.376 18.584 126.96 19.144 126.432 19.608C125.904 20.056 125.288 20.4 124.584 20.64C123.896 20.864 123.12 20.976 122.256 20.976Z" fill="#1E181A"/>
<path d="M111.735 20.688V13.2C111.735 12.272 111.519 11.584 111.087 11.136C110.655 10.688 110.079 10.464 109.359 10.464C108.543 10.464 107.887 10.736 107.391 11.28C106.911 11.808 106.671 12.536 106.671 13.464V20.688H103.695V8.184H106.479V9.864H106.503C106.855 9.24 107.343 8.76 107.967 8.424C108.591 8.072 109.335 7.896 110.199 7.896C111.095 7.896 111.879 8.072 112.551 8.424C113.223 8.776 113.751 9.312 114.135 10.032C114.519 10.752 114.711 11.68 114.711 12.816V20.688H111.735Z" fill="#1E181A"/>
<path d="M96.0006 20.688V8.184H98.7846V9.816H98.8086C99.0646 9.24 99.4566 8.776 99.9846 8.424C100.529 8.072 101.169 7.896 101.905 7.896C102.049 7.896 102.193 7.904 102.337 7.92C102.481 7.936 102.609 7.96 102.721 7.992V10.776C102.545 10.744 102.377 10.72 102.217 10.704C102.057 10.688 101.873 10.68 101.665 10.68C101.169 10.68 100.713 10.792 100.297 11.016C99.8966 11.24 99.5766 11.584 99.3366 12.048C99.0966 12.512 98.9766 13.112 98.9766 13.848V20.688H96.0006Z" fill="#1E181A"/>
<path d="M88.2317 20.976C87.0157 20.976 85.9277 20.712 84.9677 20.184C84.0077 19.656 83.2557 18.904 82.7117 17.928C82.1677 16.936 81.8957 15.776 81.8957 14.448C81.8957 13.104 82.1677 11.944 82.7117 10.968C83.2557 9.992 84.0077 9.24 84.9677 8.712C85.9277 8.168 87.0157 7.896 88.2317 7.896C89.4477 7.896 90.5277 8.168 91.4717 8.712C92.4317 9.24 93.1837 9.992 93.7277 10.968C94.2877 11.944 94.5677 13.104 94.5677 14.448C94.5677 15.776 94.2877 16.936 93.7277 17.928C93.1837 18.904 92.4317 19.656 91.4717 20.184C90.5277 20.712 89.4477 20.976 88.2317 20.976ZM88.2317 18.504C88.8557 18.504 89.4077 18.352 89.8877 18.048C90.3837 17.744 90.7757 17.296 91.0637 16.704C91.3517 16.096 91.4957 15.344 91.4957 14.448C91.4957 13.536 91.3517 12.784 91.0637 12.192C90.7757 11.584 90.3837 11.128 89.8877 10.824C89.4077 10.52 88.8557 10.368 88.2317 10.368C87.6077 10.368 87.0477 10.52 86.5517 10.824C86.0717 11.128 85.6877 11.584 85.3997 12.192C85.1117 12.784 84.9677 13.536 84.9677 14.448C84.9677 15.344 85.1037 16.096 85.3757 16.704C85.6637 17.296 86.0557 17.744 86.5517 18.048C87.0477 18.352 87.6077 18.504 88.2317 18.504Z" fill="#1E181A"/>
<path d="M69.5499 20.688V3.624H72.5259V9.768H72.5499C72.8859 9.176 73.3499 8.72 73.9419 8.4C74.5499 8.064 75.2539 7.896 76.0539 7.896C76.9499 7.896 77.7339 8.072 78.4059 8.424C79.0779 8.776 79.6059 9.312 79.9899 10.032C80.3739 10.752 80.5659 11.68 80.5659 12.816V20.688H77.5899V13.2C77.5899 12.272 77.3739 11.584 76.9419 11.136C76.5099 10.688 75.9339 10.464 75.2139 10.464C74.3979 10.464 73.7419 10.728 73.2459 11.256C72.7659 11.784 72.5259 12.52 72.5259 13.464V20.688H69.5499Z" fill="#1E181A"/>
<path d="M66.3808 20.928C65.1968 20.928 64.2928 20.632 63.6688 20.04C63.0608 19.448 62.7568 18.568 62.7568 17.4V5.472L65.7328 4.032V16.848C65.7328 17.376 65.8528 17.768 66.0928 18.024C66.3488 18.264 66.7008 18.384 67.1488 18.384C67.3248 18.384 67.5008 18.368 67.6768 18.336C67.8528 18.304 68.0528 18.256 68.2768 18.192V20.616C67.9568 20.728 67.6448 20.808 67.3408 20.856C67.0368 20.904 66.7168 20.928 66.3808 20.928ZM60.5008 10.488V8.184H68.3728V10.488H60.5008Z" fill="#1E181A"/>
<path d="M53.5759 20.688V8.184H56.3599V9.816H56.3839C56.6399 9.24 57.0319 8.776 57.5599 8.424C58.1039 8.072 58.7439 7.896 59.4799 7.896C59.6239 7.896 59.7679 7.904 59.9119 7.92C60.0559 7.936 60.1839 7.96 60.2959 7.992V10.776C60.1199 10.744 59.9519 10.72 59.7919 10.704C59.6319 10.688 59.4479 10.68 59.2399 10.68C58.7439 10.68 58.2879 10.792 57.8719 11.016C57.4719 11.24 57.1519 11.584 56.9119 12.048C56.6719 12.512 56.5519 13.112 56.5519 13.848V20.688H53.5759Z" fill="#1E181A"/>
<path d="M48.6006 20.688V8.184H51.5766V20.688H48.6006ZM50.1126 6.624C49.5846 6.624 49.1446 6.448 48.7926 6.096C48.4566 5.744 48.2886 5.32 48.2886 4.824C48.2886 4.328 48.4566 3.904 48.7926 3.552C49.1446 3.2 49.5846 3.024 50.1126 3.024C50.6246 3.024 51.0486 3.2 51.3846 3.552C51.7366 3.904 51.9126 4.328 51.9126 4.824C51.9126 5.32 51.7366 5.744 51.3846 6.096C51.0486 6.448 50.6246 6.624 50.1126 6.624Z" fill="#1E181A"/>
<path d="M32.0001 20.688L37.2801 3.768H42.3681L47.6481 20.688H44.3841L39.8481 5.28H39.8241L35.2641 20.688H32.0001ZM35.8641 15.24V12.696H43.7841V15.24H35.8641Z" fill="#1E181A"/>
</svg>
